<?xml version="1.0" encoding="utf-8" standalone="no"?>
<!DOCTYPE svg PUBLIC "-//W3C//DTD SVG 1.1//EN"
  "http://www.w3.org/Graphics/SVG/1.1/DTD/svg11.dtd">
<!-- Created with matplotlib (http://matplotlib.org/) -->
<svg height="707.76pt" version="1.1" viewBox="0 0 1382.4 707.76" width="1382.4pt" xmlns="http://www.w3.org/2000/svg" xmlns:xlink="http://www.w3.org/1999/xlink">
 <defs>
  <style type="text/css">
*{stroke-linecap:butt;stroke-linejoin:round;}
  </style>
 </defs>
 <g id="figure_1">
  <g id="patch_1">
   <path d="M 0 707.76 
L 1382.4 707.76 
L 1382.4 0 
L 0 0 
z
" style="fill:#ffffff;"/>
  </g>
  <g id="axes_1">
   <g id="patch_2">
    <path d="M 172.8 629.9064 
L 1244.16 629.9064 
L 1244.16 84.9312 
L 172.8 84.9312 
z
" style="fill:#ffffff;"/>
   </g>
   <g id="matplotlib.axis_1">
    <g id="xtick_1">
     <g id="line2d_1">
      <defs>
       <path d="M 0 0 
L 0 3.5 
" id="mc18c4dda32" style="stroke:#000000;stroke-width:0.8;"/>
      </defs>
      <g>
       <use style="stroke:#000000;stroke-width:0.8;" x="221.498182" xlink:href="#mc18c4dda32" y="629.9064"/>
      </g>
     </g>
     <g id="text_1">
      <!-- 0 -->
      <defs>
       <path d="M 31.78125 66.40625 
Q 24.171875 66.40625 20.328125 58.90625 
Q 16.5 51.421875 16.5 36.375 
Q 16.5 21.390625 20.328125 13.890625 
Q 24.171875 6.390625 31.78125 6.390625 
Q 39.453125 6.390625 43.28125 13.890625 
Q 47.125 21.390625 47.125 36.375 
Q 47.125 51.421875 43.28125 58.90625 
Q 39.453125 66.40625 31.78125 66.40625 
z
M 31.78125 74.21875 
Q 44.046875 74.21875 50.515625 64.515625 
Q 56.984375 54.828125 56.984375 36.375 
Q 56.984375 17.96875 50.515625 8.265625 
Q 44.046875 -1.421875 31.78125 -1.421875 
Q 19.53125 -1.421875 13.0625 8.265625 
Q 6.59375 17.96875 6.59375 36.375 
Q 6.59375 54.828125 13.0625 64.515625 
Q 19.53125 74.21875 31.78125 74.21875 
z
" id="DejaVuSans-30"/>
      </defs>
      <g transform="translate(218.316932 644.504838)scale(0.1 -0.1)">
       <use xlink:href="#DejaVuSans-30"/>
      </g>
     </g>
    </g>
    <g id="xtick_2">
     <g id="line2d_2">
      <g>
       <use style="stroke:#000000;stroke-width:0.8;" x="387.420437" xlink:href="#mc18c4dda32" y="629.9064"/>
      </g>
     </g>
     <g id="text_2">
      <!-- 200 -->
      <defs>
       <path d="M 19.1875 8.296875 
L 53.609375 8.296875 
L 53.609375 0 
L 7.328125 0 
L 7.328125 8.296875 
Q 12.9375 14.109375 22.625 23.890625 
Q 32.328125 33.6875 34.8125 36.53125 
Q 39.546875 41.84375 41.421875 45.53125 
Q 43.3125 49.21875 43.3125 52.78125 
Q 43.3125 58.59375 39.234375 62.25 
Q 35.15625 65.921875 28.609375 65.921875 
Q 23.96875 65.921875 18.8125 64.3125 
Q 13.671875 62.703125 7.8125 59.421875 
L 7.8125 69.390625 
Q 13.765625 71.78125 18.9375 73 
Q 24.125 74.21875 28.421875 74.21875 
Q 39.75 74.21875 46.484375 68.546875 
Q 53.21875 62.890625 53.21875 53.421875 
Q 53.21875 48.921875 51.53125 44.890625 
Q 49.859375 40.875 45.40625 35.40625 
Q 44.1875 33.984375 37.640625 27.21875 
Q 31.109375 20.453125 19.1875 8.296875 
z
" id="DejaVuSans-32"/>
      </defs>
      <g transform="translate(377.876687 644.504838)scale(0.1 -0.1)">
       <use xlink:href="#DejaVuSans-32"/>
       <use x="63.623047" xlink:href="#DejaVuSans-30"/>
       <use x="127.246094" xlink:href="#DejaVuSans-30"/>
      </g>
     </g>
    </g>
    <g id="xtick_3">
     <g id="line2d_3">
      <g>
       <use style="stroke:#000000;stroke-width:0.8;" x="553.342692" xlink:href="#mc18c4dda32" y="629.9064"/>
      </g>
     </g>
     <g id="text_3">
      <!-- 400 -->
      <defs>
       <path d="M 37.796875 64.3125 
L 12.890625 25.390625 
L 37.796875 25.390625 
z
M 35.203125 72.90625 
L 47.609375 72.90625 
L 47.609375 25.390625 
L 58.015625 25.390625 
L 58.015625 17.1875 
L 47.609375 17.1875 
L 47.609375 0 
L 37.796875 0 
L 37.796875 17.1875 
L 4.890625 17.1875 
L 4.890625 26.703125 
z
" id="DejaVuSans-34"/>
      </defs>
      <g transform="translate(543.798942 644.504838)scale(0.1 -0.1)">
       <use xlink:href="#DejaVuSans-34"/>
       <use x="63.623047" xlink:href="#DejaVuSans-30"/>
       <use x="127.246094" xlink:href="#DejaVuSans-30"/>
      </g>
     </g>
    </g>
    <g id="xtick_4">
     <g id="line2d_4">
      <g>
       <use style="stroke:#000000;stroke-width:0.8;" x="719.264947" xlink:href="#mc18c4dda32" y="629.9064"/>
      </g>
     </g>
     <g id="text_4">
      <!-- 600 -->
      <defs>
       <path d="M 33.015625 40.375 
Q 26.375 40.375 22.484375 35.828125 
Q 18.609375 31.296875 18.609375 23.390625 
Q 18.609375 15.53125 22.484375 10.953125 
Q 26.375 6.390625 33.015625 6.390625 
Q 39.65625 6.390625 43.53125 10.953125 
Q 47.40625 15.53125 47.40625 23.390625 
Q 47.40625 31.296875 43.53125 35.828125 
Q 39.65625 40.375 33.015625 40.375 
z
M 52.59375 71.296875 
L 52.59375 62.3125 
Q 48.875 64.0625 45.09375 64.984375 
Q 41.3125 65.921875 37.59375 65.921875 
Q 27.828125 65.921875 22.671875 59.328125 
Q 17.53125 52.734375 16.796875 39.40625 
Q 19.671875 43.65625 24.015625 45.921875 
Q 28.375 48.1875 33.59375 48.1875 
Q 44.578125 48.1875 50.953125 41.515625 
Q 57.328125 34.859375 57.328125 23.390625 
Q 57.328125 12.15625 50.6875 5.359375 
Q 44.046875 -1.421875 33.015625 -1.421875 
Q 20.359375 -1.421875 13.671875 8.265625 
Q 6.984375 17.96875 6.984375 36.375 
Q 6.984375 53.65625 15.1875 63.9375 
Q 23.390625 74.21875 37.203125 74.21875 
Q 40.921875 74.21875 44.703125 73.484375 
Q 48.484375 72.75 52.59375 71.296875 
z
" id="DejaVuSans-36"/>
      </defs>
      <g transform="translate(709.721197 644.504838)scale(0.1 -0.1)">
       <use xlink:href="#DejaVuSans-36"/>
       <use x="63.623047" xlink:href="#DejaVuSans-30"/>
       <use x="127.246094" xlink:href="#DejaVuSans-30"/>
      </g>
     </g>
    </g>
    <g id="xtick_5">
     <g id="line2d_5">
      <g>
       <use style="stroke:#000000;stroke-width:0.8;" x="885.187201" xlink:href="#mc18c4dda32" y="629.9064"/>
      </g>
     </g>
     <g id="text_5">
      <!-- 800 -->
      <defs>
       <path d="M 31.78125 34.625 
Q 24.75 34.625 20.71875 30.859375 
Q 16.703125 27.09375 16.703125 20.515625 
Q 16.703125 13.921875 20.71875 10.15625 
Q 24.75 6.390625 31.78125 6.390625 
Q 38.8125 6.390625 42.859375 10.171875 
Q 46.921875 13.96875 46.921875 20.515625 
Q 46.921875 27.09375 42.890625 30.859375 
Q 38.875 34.625 31.78125 34.625 
z
M 21.921875 38.8125 
Q 15.578125 40.375 12.03125 44.71875 
Q 8.5 49.078125 8.5 55.328125 
Q 8.5 64.0625 14.71875 69.140625 
Q 20.953125 74.21875 31.78125 74.21875 
Q 42.671875 74.21875 48.875 69.140625 
Q 55.078125 64.0625 55.078125 55.328125 
Q 55.078125 49.078125 51.53125 44.71875 
Q 48 40.375 41.703125 38.8125 
Q 48.828125 37.15625 52.796875 32.3125 
Q 56.78125 27.484375 56.78125 20.515625 
Q 56.78125 9.90625 50.3125 4.234375 
Q 43.84375 -1.421875 31.78125 -1.421875 
Q 19.734375 -1.421875 13.25 4.234375 
Q 6.78125 9.90625 6.78125 20.515625 
Q 6.78125 27.484375 10.78125 32.3125 
Q 14.796875 37.15625 21.921875 38.8125 
z
M 18.3125 54.390625 
Q 18.3125 48.734375 21.84375 45.5625 
Q 25.390625 42.390625 31.78125 42.390625 
Q 38.140625 42.390625 41.71875 45.5625 
Q 45.3125 48.734375 45.3125 54.390625 
Q 45.3125 60.0625 41.71875 63.234375 
Q 38.140625 66.40625 31.78125 66.40625 
Q 25.390625 66.40625 21.84375 63.234375 
Q 18.3125 60.0625 18.3125 54.390625 
z
" id="DejaVuSans-38"/>
      </defs>
      <g transform="translate(875.643451 644.504838)scale(0.1 -0.1)">
       <use xlink:href="#DejaVuSans-38"/>
       <use x="63.623047" xlink:href="#DejaVuSans-30"/>
       <use x="127.246094" xlink:href="#DejaVuSans-30"/>
      </g>
     </g>
    </g>
    <g id="xtick_6">
     <g id="line2d_6">
      <g>
       <use style="stroke:#000000;stroke-width:0.8;" x="1051.109456" xlink:href="#mc18c4dda32" y="629.9064"/>
      </g>
     </g>
     <g id="text_6">
      <!-- 1000 -->
      <defs>
       <path d="M 12.40625 8.296875 
L 28.515625 8.296875 
L 28.515625 63.921875 
L 10.984375 60.40625 
L 10.984375 69.390625 
L 28.421875 72.90625 
L 38.28125 72.90625 
L 38.28125 8.296875 
L 54.390625 8.296875 
L 54.390625 0 
L 12.40625 0 
z
" id="DejaVuSans-31"/>
      </defs>
      <g transform="translate(1038.384456 644.504838)scale(0.1 -0.1)">
       <use xlink:href="#DejaVuSans-31"/>
       <use x="63.623047" xlink:href="#DejaVuSans-30"/>
       <use x="127.246094" xlink:href="#DejaVuSans-30"/>
       <use x="190.869141" xlink:href="#DejaVuSans-30"/>
      </g>
     </g>
    </g>
    <g id="xtick_7">
     <g id="line2d_7">
      <g>
       <use style="stroke:#000000;stroke-width:0.8;" x="1217.031711" xlink:href="#mc18c4dda32" y="629.9064"/>
      </g>
     </g>
     <g id="text_7">
      <!-- 1200 -->
      <g transform="translate(1204.306711 644.504838)scale(0.1 -0.1)">
       <use xlink:href="#DejaVuSans-31"/>
       <use x="63.623047" xlink:href="#DejaVuSans-32"/>
       <use x="127.246094" xlink:href="#DejaVuSans-30"/>
       <use x="190.869141" xlink:href="#DejaVuSans-30"/>
      </g>
     </g>
    </g>
   </g>
   <g id="matplotlib.axis_2">
    <g id="ytick_1">
     <g id="line2d_8">
      <defs>
       <path d="M 0 0 
L -3.5 0 
" id="m09a40b11a9" style="stroke:#000000;stroke-width:0.8;"/>
      </defs>
      <g>
       <use style="stroke:#000000;stroke-width:0.8;" x="172.8" xlink:href="#m09a40b11a9" y="614.439129"/>
      </g>
     </g>
     <g id="text_8">
      <!-- −40 -->
      <defs>
       <path d="M 10.59375 35.5 
L 73.1875 35.5 
L 73.1875 27.203125 
L 10.59375 27.203125 
z
" id="DejaVuSans-2212"/>
      </defs>
      <g transform="translate(144.695312 618.238347)scale(0.1 -0.1)">
       <use xlink:href="#DejaVuSans-2212"/>
       <use x="83.789062" xlink:href="#DejaVuSans-34"/>
       <use x="147.412109" xlink:href="#DejaVuSans-30"/>
      </g>
     </g>
    </g>
    <g id="ytick_2">
     <g id="line2d_9">
      <g>
       <use style="stroke:#000000;stroke-width:0.8;" x="172.8" xlink:href="#m09a40b11a9" y="543.105943"/>
      </g>
     </g>
     <g id="text_9">
      <!-- −20 -->
      <g transform="translate(144.695312 546.905162)scale(0.1 -0.1)">
       <use xlink:href="#DejaVuSans-2212"/>
       <use x="83.789062" xlink:href="#DejaVuSans-32"/>
       <use x="147.412109" xlink:href="#DejaVuSans-30"/>
      </g>
     </g>
    </g>
    <g id="ytick_3">
     <g id="line2d_10">
      <g>
       <use style="stroke:#000000;stroke-width:0.8;" x="172.8" xlink:href="#m09a40b11a9" y="471.772757"/>
      </g>
     </g>
     <g id="text_10">
      <!-- 0 -->
      <g transform="translate(159.4375 475.571976)scale(0.1 -0.1)">
       <use xlink:href="#DejaVuSans-30"/>
      </g>
     </g>
    </g>
    <g id="ytick_4">
     <g id="line2d_11">
      <g>
       <use style="stroke:#000000;stroke-width:0.8;" x="172.8" xlink:href="#m09a40b11a9" y="400.439572"/>
      </g>
     </g>
     <g id="text_11">
      <!-- 20 -->
      <g transform="translate(153.075 404.23879)scale(0.1 -0.1)">
       <use xlink:href="#DejaVuSans-32"/>
       <use x="63.623047" xlink:href="#DejaVuSans-30"/>
      </g>
     </g>
    </g>
    <g id="ytick_5">
     <g id="line2d_12">
      <g>
       <use style="stroke:#000000;stroke-width:0.8;" x="172.8" xlink:href="#m09a40b11a9" y="329.106386"/>
      </g>
     </g>
     <g id="text_12">
      <!-- 40 -->
      <g transform="translate(153.075 332.905605)scale(0.1 -0.1)">
       <use xlink:href="#DejaVuSans-34"/>
       <use x="63.623047" xlink:href="#DejaVuSans-30"/>
      </g>
     </g>
    </g>
    <g id="ytick_6">
     <g id="line2d_13">
      <g>
       <use style="stroke:#000000;stroke-width:0.8;" x="172.8" xlink:href="#m09a40b11a9" y="257.7732"/>
      </g>
     </g>
     <g id="text_13">
      <!-- 60 -->
      <g transform="translate(153.075 261.572419)scale(0.1 -0.1)">
       <use xlink:href="#DejaVuSans-36"/>
       <use x="63.623047" xlink:href="#DejaVuSans-30"/>
      </g>
     </g>
    </g>
    <g id="ytick_7">
     <g id="line2d_14">
      <g>
       <use style="stroke:#000000;stroke-width:0.8;" x="172.8" xlink:href="#m09a40b11a9" y="186.440015"/>
      </g>
     </g>
     <g id="text_14">
      <!-- 80 -->
      <g transform="translate(153.075 190.239234)scale(0.1 -0.1)">
       <use xlink:href="#DejaVuSans-38"/>
       <use x="63.623047" xlink:href="#DejaVuSans-30"/>
      </g>
     </g>
    </g>
    <g id="ytick_8">
     <g id="line2d_15">
      <g>
       <use style="stroke:#000000;stroke-width:0.8;" x="172.8" xlink:href="#m09a40b11a9" y="115.106829"/>
      </g>
     </g>
     <g id="text_15">
      <!-- 100 -->
      <g transform="translate(146.7125 118.906048)scale(0.1 -0.1)">
       <use xlink:href="#DejaVuSans-31"/>
       <use x="63.623047" xlink:href="#DejaVuSans-30"/>
       <use x="127.246094" xlink:href="#DejaVuSans-30"/>
      </g>
     </g>
    </g>
   </g>
   <g id="line2d_16">
    <path clip-path="url(#p1ca7575ed9)" d="M 221.498182 469.070743 
L 222.327793 466.368728 
L 223.157404 469.070743 
L 223.987016 469.070743 
L 224.816627 466.368728 
L 225.646238 469.070743 
L 226.475849 469.070743 
L 227.305461 471.772757 
L 228.135072 469.070743 
L 228.964683 471.772757 
L 229.794295 469.070743 
L 230.623906 469.070743 
L 231.453517 471.772757 
L 232.283128 463.666713 
L 233.11274 469.070743 
L 233.942351 466.368728 
L 235.601573 471.772757 
L 236.431185 469.070743 
L 239.74963 469.070743 
L 240.579241 466.368728 
L 241.408852 471.772757 
L 242.238464 469.070743 
L 243.068075 471.772757 
L 244.727298 466.368728 
L 246.38652 466.368728 
L 247.216131 469.070743 
L 248.875354 463.666713 
L 249.704965 471.772757 
L 250.534576 469.070743 
L 251.364188 469.070743 
L 252.193799 471.772757 
L 253.853022 466.368728 
L 254.682633 469.070743 
L 255.512244 466.368728 
L 257.171467 471.772757 
L 258.001078 469.070743 
L 258.830689 471.772757 
L 261.319523 463.666713 
L 262.149134 469.070743 
L 262.978746 466.368728 
L 263.808357 469.070743 
L 264.637968 466.368728 
L 267.126802 466.368728 
L 267.956413 469.070743 
L 269.615636 469.070743 
L 270.445247 466.368728 
L 271.274858 466.368728 
L 272.10447 471.772757 
L 272.934081 466.368728 
L 273.763692 463.666713 
L 274.593303 463.666713 
L 276.252526 469.070743 
L 277.082137 466.368728 
L 277.911748 469.070743 
L 279.570971 469.070743 
L 280.400582 466.368728 
L 281.230194 469.070743 
L 282.059805 466.368728 
L 283.719027 471.772757 
L 284.548639 499.685743 
L 285.37825 558.613157 
L 286.207861 592.729029 
L 287.037473 602.033357 
L 290.355918 602.033357 
L 291.185529 598.931914 
L 292.01514 602.033357 
L 293.674363 602.033357 
L 294.503974 598.931914 
L 295.333585 598.931914 
L 296.163197 602.033357 
L 296.992808 602.033357 
L 297.822419 598.931914 
L 298.65203 602.033357 
L 299.481642 598.931914 
L 300.311253 602.033357 
L 301.140864 602.033357 
L 301.970475 605.1348 
L 302.800087 598.931914 
L 303.629698 602.033357 
L 308.607366 602.033357 
L 309.436977 598.931914 
L 310.266588 598.931914 
L 311.096199 602.033357 
L 312.755422 602.033357 
L 313.585033 598.931914 
L 315.244256 598.931914 
L 316.073867 602.033357 
L 316.903478 598.931914 
L 317.73309 602.033357 
L 321.881146 602.033357 
L 322.710757 598.931914 
L 323.540369 598.931914 
L 324.36998 602.033357 
L 327.688425 602.033357 
L 328.518036 598.931914 
L 329.347648 602.033357 
L 331.00687 602.033357 
L 331.836481 598.931914 
L 332.666093 602.033357 
L 335.154926 602.033357 
L 335.984538 598.931914 
L 336.814149 602.033357 
L 337.64376 602.033357 
L 338.473372 598.931914 
L 339.302983 598.931914 
L 340.132594 602.033357 
L 340.962205 602.033357 
L 341.791817 598.931914 
L 342.621428 580.323257 
L 343.451039 524.497286 
L 344.28065 484.178529 
L 345.110262 469.070743 
L 346.769484 469.070743 
L 348.428707 463.666713 
L 349.258318 466.368728 
L 350.087929 481.077086 
L 350.917541 469.070743 
L 351.747152 431.242538 
L 352.576763 460.964699 
L 353.406374 524.497286 
L 354.235986 493.482857 
L 355.065597 415.030451 
L 355.895208 439.348582 
L 356.72482 524.497286 
L 357.554431 512.091514 
L 358.384042 420.43448 
L 359.213653 417.732465 
L 360.043265 512.091514 
L 360.872876 527.598729 
L 361.702487 433.944553 
L 362.532098 406.924407 
L 363.36171 493.482857 
L 364.191321 533.801614 
L 365.020932 450.15664 
L 365.850544 404.222392 
L 367.509766 540.0045 
L 369.168989 401.520378 
L 369.9986 455.56067 
L 370.828211 536.903057 
L 371.657823 493.482857 
L 372.487434 406.924407 
L 373.317045 433.944553 
L 374.146656 524.497286 
L 374.976268 512.091514 
L 375.805879 417.732465 
L 376.63549 423.136494 
L 377.465101 515.192957 
L 378.294713 524.497286 
L 379.124324 431.242538 
L 379.953935 415.030451 
L 380.783547 490.381414 
L 381.613158 515.192957 
L 382.442769 463.666713 
L 383.27238 447.454626 
L 384.101992 469.070743 
L 384.931603 481.077086 
L 385.761214 469.070743 
L 386.590825 463.666713 
L 388.250048 469.070743 
L 389.079659 469.070743 
L 389.909271 463.666713 
L 390.738882 469.070743 
L 393.227716 469.070743 
L 394.057327 466.368728 
L 394.886938 466.368728 
L 395.716549 469.070743 
L 396.546161 469.070743 
L 397.375772 471.772757 
L 398.205383 469.070743 
L 399.864606 469.070743 
L 400.694217 466.368728 
L 401.523828 469.070743 
L 402.35344 466.368728 
L 403.183051 471.772757 
L 404.012662 469.070743 
L 405.671885 469.070743 
L 406.501496 466.368728 
L 407.331107 466.368728 
L 408.160719 469.070743 
L 409.819941 463.666713 
L 410.649552 450.15664 
L 411.479164 398.818363 
L 412.308775 271.823676 
L 413.138386 163.743092 
L 413.967998 123.212873 
L 414.797609 115.106829 
L 415.62722 115.106829 
L 416.456831 112.404815 
L 417.286443 120.510858 
L 418.945665 115.106829 
L 419.775276 117.808844 
L 420.604888 115.106829 
L 421.434499 120.510858 
L 422.26411 117.808844 
L 423.093722 112.404815 
L 423.923333 117.808844 
L 425.582555 117.808844 
L 426.412167 120.510858 
L 427.241778 117.808844 
L 428.071389 117.808844 
L 428.901 115.106829 
L 429.730612 115.106829 
L 430.560223 109.7028 
L 431.389834 115.106829 
L 432.219446 115.106829 
L 433.049057 117.808844 
L 433.878668 117.808844 
L 434.708279 115.106829 
L 435.537891 117.808844 
L 436.367502 117.808844 
L 437.197113 115.106829 
L 438.026724 115.106829 
L 438.856336 117.808844 
L 439.685947 115.106829 
L 440.515558 117.808844 
L 441.34517 115.106829 
L 442.174781 117.808844 
L 443.834003 112.404815 
L 444.663615 115.106829 
L 445.493226 112.404815 
L 446.322837 115.106829 
L 447.152449 120.510858 
L 447.98206 120.510858 
L 449.641282 115.106829 
L 450.470894 115.106829 
L 451.300505 112.404815 
L 452.959727 117.808844 
L 455.448561 117.808844 
L 456.278173 115.106829 
L 457.107784 115.106829 
L 457.937395 117.808844 
L 458.767006 115.106829 
L 460.426229 115.106829 
L 461.25584 112.404815 
L 462.085451 117.808844 
L 464.574285 117.808844 
L 465.403897 115.106829 
L 466.233508 115.106829 
L 467.063119 117.808844 
L 470.381564 117.808844 
L 471.211175 115.106829 
L 472.870398 115.106829 
L 473.700009 117.808844 
L 474.529621 112.404815 
L 476.188843 117.808844 
L 477.018454 115.106829 
L 478.677677 120.510858 
L 479.507288 117.808844 
L 480.336899 117.808844 
L 481.166511 115.106829 
L 481.996122 115.106829 
L 482.825733 117.808844 
L 486.144178 117.808844 
L 486.97379 112.404815 
L 487.803401 117.808844 
L 489.462624 112.404815 
L 490.292235 117.808844 
L 491.121846 115.106829 
L 491.951457 115.106829 
L 492.781069 117.808844 
L 493.61068 115.106829 
L 497.758736 115.106829 
L 498.588348 117.808844 
L 499.417959 112.404815 
L 500.24757 112.404815 
L 501.077181 115.106829 
L 502.736404 115.106829 
L 503.566015 112.404815 
L 505.225238 117.808844 
L 506.88446 117.808844 
L 507.714072 115.106829 
L 508.543683 115.106829 
L 509.373294 120.510858 
L 510.202905 158.339063 
L 511.032517 163.743092 
L 511.862128 142.126975 
L 512.691739 215.08137 
L 513.52135 309.651881 
L 514.350962 247.505545 
L 515.180573 131.318917 
L 516.010184 179.95518 
L 516.839796 309.651881 
L 517.669407 279.92972 
L 518.499018 142.126975 
L 519.328629 152.935034 
L 520.158241 293.439793 
L 520.987852 304.247852 
L 521.817463 163.743092 
L 522.647074 134.020931 
L 523.476686 271.823676 
L 524.306297 317.757925 
L 525.135908 190.763238 
L 525.96552 123.212873 
L 526.795131 239.399501 
L 527.624742 328.565983 
L 529.283965 123.212873 
L 530.113576 212.379355 
L 530.943187 325.863969 
L 531.772799 244.80353 
L 532.60241 123.212873 
L 533.432021 188.061224 
L 534.261632 317.757925 
L 535.091244 274.525691 
L 535.920855 134.020931 
L 536.750466 155.637048 
L 537.580077 304.247852 
L 538.409689 296.141808 
L 539.2393 161.041078 
L 540.068911 139.424961 
L 540.898523 277.227706 
L 541.728134 312.353896 
L 542.557745 185.359209 
L 543.387356 125.914888 
L 544.216968 247.505545 
L 545.046579 325.863969 
L 545.87619 212.379355 
L 546.705801 120.510858 
L 548.365024 325.863969 
L 549.194635 242.101516 
L 550.024247 123.212873 
L 550.853858 193.465253 
L 551.683469 320.459939 
L 552.51308 266.419647 
L 553.342692 134.020931 
L 554.172303 166.445107 
L 555.001914 304.247852 
L 555.831525 290.737779 
L 556.661137 152.935034 
L 557.490748 139.424961 
L 558.320359 279.92972 
L 559.149971 317.757925 
L 559.979582 177.253165 
L 560.809193 128.616902 
L 561.638804 258.313603 
L 562.468416 323.161954 
L 563.298027 206.975326 
L 564.127638 120.510858 
L 565.786861 328.565983 
L 567.446083 125.914888 
L 568.275695 198.869282 
L 569.105306 320.459939 
L 569.934917 261.015618 
L 570.764528 131.318917 
L 571.59414 171.849136 
L 572.423751 306.949866 
L 573.253362 288.035764 
L 574.082974 147.531004 
L 574.912585 150.233019 
L 575.742196 290.737779 
L 576.571807 301.545837 
L 577.401419 171.849136 
L 578.23103 131.318917 
L 579.060641 266.419647 
L 579.890252 325.863969 
L 580.719864 196.167267 
L 581.549475 125.914888 
L 582.379086 242.101516 
L 583.208698 301.545837 
L 584.038309 196.167267 
L 584.86792 212.379355 
L 585.697531 331.267998 
L 586.527143 263.717633 
L 587.356754 161.041078 
L 588.186365 274.525691 
L 589.015976 404.222392 
L 589.845588 279.92972 
L 590.675199 128.616902 
L 591.50481 233.995472 
L 592.334422 409.626421 
L 593.164033 320.459939 
L 593.993644 139.424961 
L 594.823255 196.167267 
L 595.652867 396.116348 
L 596.482478 360.990158 
L 597.312089 158.339063 
L 598.1417 163.743092 
L 598.971312 366.394188 
L 599.800923 390.712319 
L 600.630534 193.465253 
L 601.460146 136.722946 
L 602.289757 328.565983 
L 603.119368 406.924407 
L 603.948979 231.293457 
L 604.778591 125.914888 
L 605.608202 285.333749 
L 606.437813 417.732465 
L 608.097036 125.914888 
L 608.926647 247.505545 
L 609.756258 412.328436 
L 610.58587 317.757925 
L 611.415481 131.318917 
L 612.245092 204.273311 
L 613.074703 396.116348 
L 613.904315 352.884115 
L 614.733926 155.637048 
L 615.563537 171.849136 
L 616.393149 374.500231 
L 617.22276 385.30829 
L 618.052371 185.359209 
L 618.881982 144.82899 
L 619.711594 342.076056 
L 620.541205 406.924407 
L 621.370816 217.783384 
L 622.200427 125.914888 
L 623.030039 296.141808 
L 623.85965 417.732465 
L 625.518873 123.212873 
L 626.348484 252.909574 
L 627.178095 415.030451 
L 628.007706 296.141808 
L 628.837318 128.616902 
L 629.666929 217.783384 
L 630.49654 404.222392 
L 631.326151 344.778071 
L 632.155763 150.233019 
L 632.985374 177.253165 
L 633.814985 382.606275 
L 634.644597 377.202246 
L 635.474208 174.551151 
L 636.303819 147.531004 
L 637.13343 350.1821 
L 637.963042 401.520378 
L 638.792653 212.379355 
L 639.622264 128.616902 
L 640.451875 309.651881 
L 641.281487 415.030451 
L 642.111098 250.20756 
L 642.940709 120.510858 
L 644.599932 417.732465 
L 645.429543 290.737779 
L 646.259154 128.616902 
L 647.088766 223.187413 
L 647.918377 406.924407 
L 648.747988 333.970012 
L 649.5776 139.424961 
L 650.407211 185.359209 
L 651.236822 385.30829 
L 652.066433 369.096202 
L 652.896045 166.445107 
L 653.725656 150.233019 
L 654.555267 358.288144 
L 655.384878 396.116348 
L 656.21449 204.273311 
L 657.044101 131.318917 
L 657.873712 298.843822 
L 658.703324 412.328436 
L 659.532935 309.651881 
L 660.362546 166.445107 
L 661.192157 223.187413 
L 662.021769 404.222392 
L 662.85138 388.010305 
L 663.680991 201.571297 
L 664.510602 182.657194 
L 665.340214 369.096202 
L 666.169825 423.136494 
L 666.999436 247.505545 
L 667.829048 163.743092 
L 668.658659 328.565983 
L 669.48827 431.242538 
L 670.317881 279.92972 
L 671.147493 152.935034 
L 672.806715 433.944553 
L 673.636326 323.161954 
L 674.465938 166.445107 
L 675.295549 252.909574 
L 676.12516 423.136494 
L 676.954772 358.288144 
L 677.784383 174.551151 
L 678.613994 215.08137 
L 679.443605 404.222392 
L 680.273217 388.010305 
L 681.102828 204.273311 
L 681.932439 185.359209 
L 682.76205 374.500231 
L 683.591662 417.732465 
L 684.421273 233.995472 
L 685.250884 166.445107 
L 686.080496 339.374042 
L 686.910107 433.944553 
L 687.739718 271.823676 
L 688.569329 158.339063 
L 690.228552 433.944553 
L 691.058163 312.353896 
L 691.887775 158.339063 
L 692.717386 258.313603 
L 693.546997 428.540524 
L 694.376608 344.778071 
L 695.20622 174.551151 
L 696.035831 225.889428 
L 696.865442 412.328436 
L 697.695053 385.30829 
L 698.524665 190.763238 
L 699.354276 193.465253 
L 700.183887 385.30829 
L 701.013499 409.626421 
L 701.84311 225.889428 
L 702.672721 174.551151 
L 703.502332 347.480085 
L 704.331944 425.838509 
L 705.161555 261.015618 
L 705.991166 158.339063 
L 706.820777 312.353896 
L 707.650389 436.646567 
L 709.309611 158.339063 
L 710.139223 269.121662 
L 710.968834 428.540524 
L 711.798445 339.374042 
L 712.628056 169.147121 
L 713.457668 233.995472 
L 714.287279 415.030451 
L 715.11689 374.500231 
L 715.946501 190.763238 
L 716.776113 201.571297 
L 717.605724 393.414334 
L 718.435335 401.520378 
L 719.264947 217.783384 
L 720.094558 177.253165 
L 720.924169 358.288144 
L 721.75378 423.136494 
L 722.583392 250.20756 
L 723.413003 161.041078 
L 724.242614 323.161954 
L 725.072225 436.646567 
L 726.731448 155.637048 
L 727.561059 282.631735 
L 728.390671 433.944553 
L 729.220282 333.970012 
L 730.049893 166.445107 
L 730.879504 247.505545 
L 731.709116 388.010305 
L 732.538727 336.672027 
L 733.368338 296.141808 
L 734.19795 336.672027 
L 735.027561 293.439793 
L 735.857172 282.631735 
L 736.686783 415.030451 
L 737.516395 436.646567 
L 738.346006 274.525691 
L 739.175617 223.187413 
L 740.005228 396.116348 
L 740.83484 474.8742 
L 741.664451 315.05591 
L 742.494062 206.975326 
L 743.323674 355.586129 
L 744.153285 481.077086 
L 744.982896 352.884115 
L 745.812507 206.975326 
L 746.642119 315.05591 
L 747.47173 477.975643 
L 748.301341 388.010305 
L 749.130952 215.08137 
L 749.960564 279.92972 
L 750.790175 458.262684 
L 751.619786 423.136494 
L 752.449398 239.399501 
L 753.279009 239.399501 
L 754.10862 436.646567 
L 754.938231 450.15664 
L 755.767843 269.121662 
L 756.597454 223.187413 
L 757.427065 406.924407 
L 758.256676 471.772757 
L 759.086288 298.843822 
L 759.915899 206.975326 
L 760.74551 363.692173 
L 761.575122 484.178529 
L 763.234344 201.571297 
L 764.063955 325.863969 
L 764.893567 474.8742 
L 765.723178 379.904261 
L 766.552789 212.379355 
L 767.3824 285.333749 
L 768.212012 469.070743 
L 769.041623 412.328436 
L 769.871234 231.293457 
L 770.700846 255.611589 
L 771.530457 442.050597 
L 772.360068 447.454626 
L 773.189679 261.015618 
L 774.019291 223.187413 
L 774.848902 406.924407 
L 775.678513 463.666713 
L 776.508125 293.439793 
L 777.337736 206.975326 
L 778.167347 377.202246 
L 778.996958 477.975643 
L 779.82657 331.267998 
L 780.656181 204.273311 
L 781.485792 331.267998 
L 782.315403 481.077086 
L 783.145015 371.798217 
L 783.974626 209.67734 
L 784.804237 296.141808 
L 785.633849 469.070743 
L 786.46346 409.626421 
L 787.293071 225.889428 
L 788.122682 258.313603 
L 788.952294 450.15664 
L 789.781905 436.646567 
L 790.611516 247.505545 
L 791.441127 228.591443 
L 792.270739 423.136494 
L 793.10035 463.666713 
L 793.929961 279.92972 
L 794.759573 206.975326 
L 795.589184 379.904261 
L 796.418795 474.8742 
L 797.248406 323.161954 
L 798.078018 204.273311 
L 799.73724 481.077086 
L 800.566851 358.288144 
L 801.396463 206.975326 
L 802.226074 304.247852 
L 803.055685 469.070743 
L 803.885297 396.116348 
L 804.714908 220.485399 
L 805.544519 277.227706 
L 806.37413 463.666713 
L 807.203742 398.818363 
L 808.033353 242.101516 
L 808.862964 325.863969 
L 809.692575 496.5843 
L 810.522187 409.626421 
L 811.351798 236.697487 
L 812.181409 312.353896 
L 813.011021 499.685743 
L 813.840632 442.050597 
L 814.670243 250.20756 
L 815.499854 277.227706 
L 816.329466 474.8742 
L 817.159077 471.772757 
L 817.988688 274.525691 
L 818.8183 244.80353 
L 819.647911 444.752611 
L 820.477522 499.685743 
L 821.307133 312.353896 
L 822.136745 233.995472 
L 822.966356 409.626421 
L 823.795967 515.192957 
L 824.625578 350.1821 
L 825.45519 220.485399 
L 827.114412 521.395843 
L 827.944024 393.414334 
L 828.773635 228.591443 
L 829.603246 325.863969 
L 830.432857 505.888629 
L 831.262469 431.242538 
L 832.09208 242.101516 
L 832.921691 282.631735 
L 833.751302 484.178529 
L 834.580914 466.368728 
L 835.410525 266.419647 
L 836.240136 255.611589 
L 837.069748 458.262684 
L 837.899359 496.5843 
L 838.72897 301.545837 
L 839.558581 233.995472 
L 840.388193 417.732465 
L 841.217804 515.192957 
L 842.047415 342.076056 
L 842.877026 225.889428 
L 844.536249 521.395843 
L 845.36586 382.606275 
L 846.195472 223.187413 
L 847.025083 331.267998 
L 847.854694 508.990072 
L 848.684305 425.838509 
L 849.513917 239.399501 
L 850.343528 293.439793 
L 851.173139 493.482857 
L 852.002751 455.56067 
L 852.832362 266.419647 
L 853.661973 263.717633 
L 854.491584 460.964699 
L 855.321196 490.381414 
L 856.150807 293.439793 
L 856.980418 239.399501 
L 857.810029 428.540524 
L 858.639641 508.990072 
L 859.469252 331.267998 
L 860.298863 225.889428 
L 861.128475 385.30829 
L 861.958086 515.192957 
L 863.617308 225.889428 
L 864.44692 342.076056 
L 865.276531 515.192957 
L 866.106142 415.030451 
L 866.935753 233.995472 
L 867.765365 304.247852 
L 868.594976 493.482857 
L 869.424587 452.858655 
L 870.254199 258.313603 
L 871.08381 269.121662 
L 871.913421 471.772757 
L 872.743032 481.077086 
L 873.572644 288.035764 
L 874.402255 242.101516 
L 875.231866 436.646567 
L 876.061477 502.787186 
L 876.891089 317.757925 
L 877.7207 225.889428 
L 878.550311 393.414334 
L 879.379923 499.685743 
L 880.209534 385.30829 
L 881.039145 296.141808 
L 881.868756 339.374042 
L 882.698368 425.838509 
L 883.527979 493.482857 
L 884.35759 452.858655 
L 885.187201 342.076056 
L 886.016813 344.778071 
L 886.846424 477.975643 
L 887.676035 502.787186 
L 888.505647 369.096202 
L 889.335258 315.05591 
L 890.164869 444.752611 
L 890.99448 518.2944 
L 891.824092 396.116348 
L 892.653703 306.949866 
L 894.312926 524.497286 
L 895.142537 425.838509 
L 895.972148 312.353896 
L 896.801759 388.010305 
L 897.631371 518.2944 
L 898.460982 458.262684 
L 899.290593 320.459939 
L 900.120204 363.692173 
L 900.949816 502.787186 
L 901.779427 481.077086 
L 902.609038 342.076056 
L 903.43865 336.672027 
L 904.268261 474.8742 
L 905.097872 499.685743 
L 905.927483 363.692173 
L 906.757095 320.459939 
L 907.586706 455.56067 
L 908.416317 518.2944 
L 909.245928 393.414334 
L 910.07554 312.353896 
L 910.905151 425.838509 
L 911.734762 521.395843 
L 913.393985 312.353896 
L 914.223596 398.818363 
L 915.053207 521.395843 
L 915.882819 450.15664 
L 916.71243 320.459939 
L 917.542041 371.798217 
L 918.371652 502.787186 
L 919.201264 474.8742 
L 920.030875 331.267998 
L 920.860486 336.672027 
L 921.690098 484.178529 
L 922.519709 499.685743 
L 923.34932 360.990158 
L 924.178931 328.565983 
L 925.008543 458.262684 
L 925.838154 515.192957 
L 926.667765 385.30829 
L 927.497376 309.651881 
L 928.326988 433.944553 
L 929.156599 521.395843 
L 930.815822 309.651881 
L 931.645433 401.520378 
L 932.475044 521.395843 
L 933.304655 439.348582 
L 934.134267 315.05591 
L 934.963878 374.500231 
L 935.793489 508.990072 
L 936.623101 466.368728 
L 937.452712 328.565983 
L 938.282323 347.480085 
L 939.111934 490.381414 
L 939.941546 493.482857 
L 940.771157 352.884115 
L 941.600768 325.863969 
L 942.430379 466.368728 
L 943.259991 512.091514 
L 944.089602 379.904261 
L 944.919213 309.651881 
L 945.748825 439.348582 
L 946.578436 524.497286 
L 947.408047 404.222392 
L 948.237658 309.651881 
L 949.06727 406.924407 
L 949.896881 518.2944 
L 950.726492 433.944553 
L 951.556103 309.651881 
L 952.385715 382.606275 
L 953.215326 505.888629 
L 954.044937 452.858655 
L 954.874549 355.586129 
L 955.70416 388.010305 
L 956.533771 466.368728 
L 957.363382 460.964699 
L 958.192994 431.242538 
L 959.022605 431.242538 
L 959.852216 442.050597 
L 960.681827 444.752611 
L 961.511439 439.348582 
L 963.170661 439.348582 
L 964.000273 444.752611 
L 964.829884 444.752611 
L 965.659495 439.348582 
L 966.489106 442.050597 
L 969.807551 442.050597 
L 970.637163 439.348582 
L 971.466774 442.050597 
L 972.296385 436.646567 
L 973.125997 444.752611 
L 973.955608 442.050597 
L 975.61483 442.050597 
L 976.444442 439.348582 
L 977.274053 442.050597 
L 979.762887 442.050597 
L 980.592498 444.752611 
L 981.422109 442.050597 
L 983.910943 442.050597 
L 984.740554 444.752611 
L 985.570166 442.050597 
L 988.888611 442.050597 
L 989.718222 444.752611 
L 990.547833 444.752611 
L 991.377445 442.050597 
L 992.207056 442.050597 
L 993.036667 436.646567 
L 993.866278 442.050597 
L 994.69589 442.050597 
L 995.525501 439.348582 
L 996.355112 442.050597 
L 997.184724 442.050597 
L 998.014335 439.348582 
L 998.843946 444.752611 
L 999.673557 444.752611 
L 1000.503169 442.050597 
L 1001.33278 444.752611 
L 1002.992002 439.348582 
L 1003.821614 442.050597 
L 1005.480836 442.050597 
L 1006.310448 444.752611 
L 1007.96967 439.348582 
L 1008.799281 439.348582 
L 1009.628893 442.050597 
L 1010.458504 439.348582 
L 1011.288115 439.348582 
L 1012.947338 444.752611 
L 1014.60656 439.348582 
L 1015.436172 442.050597 
L 1017.095394 442.050597 
L 1017.925005 439.348582 
L 1018.754617 442.050597 
L 1022.073062 442.050597 
L 1022.902673 444.752611 
L 1023.732284 442.050597 
L 1024.561896 436.646567 
L 1025.391507 442.050597 
L 1026.221118 442.050597 
L 1027.050729 444.752611 
L 1027.880341 439.348582 
L 1028.709952 442.050597 
L 1029.539563 439.348582 
L 1030.369175 442.050597 
L 1033.68762 442.050597 
L 1034.517231 444.752611 
L 1035.346842 442.050597 
L 1037.006065 442.050597 
L 1037.835676 439.348582 
L 1038.665287 439.348582 
L 1039.494899 444.752611 
L 1040.32451 442.050597 
L 1041.154121 442.050597 
L 1041.983732 444.752611 
L 1042.813344 436.646567 
L 1043.642955 444.752611 
L 1044.472566 444.752611 
L 1045.302177 439.348582 
L 1046.131789 442.050597 
L 1046.9614 436.646567 
L 1047.791011 439.348582 
L 1048.620623 447.454626 
L 1049.450234 447.454626 
L 1050.279845 444.752611 
L 1051.109456 450.15664 
L 1051.939068 460.964699 
L 1052.768679 463.666713 
L 1053.59829 469.070743 
L 1054.427902 466.368728 
L 1055.257513 466.368728 
L 1056.087124 469.070743 
L 1056.916735 466.368728 
L 1059.405569 466.368728 
L 1060.23518 469.070743 
L 1061.064792 469.070743 
L 1061.894403 466.368728 
L 1062.724014 469.070743 
L 1063.553626 466.368728 
L 1064.383237 469.070743 
L 1065.212848 469.070743 
L 1066.872071 463.666713 
L 1067.701682 466.368728 
L 1068.531293 466.368728 
L 1069.360904 469.070743 
L 1071.020127 469.070743 
L 1071.849738 463.666713 
L 1072.67935 466.368728 
L 1073.508961 463.666713 
L 1074.338572 466.368728 
L 1075.168183 484.178529 
L 1076.827406 583.4247 
L 1077.657017 598.931914 
L 1078.486628 602.033357 
L 1080.975462 602.033357 
L 1081.805074 598.931914 
L 1082.634685 602.033357 
L 1083.464296 598.931914 
L 1084.293907 598.931914 
L 1085.123519 602.033357 
L 1085.95313 598.931914 
L 1086.782741 598.931914 
L 1087.612352 595.830471 
L 1089.271575 602.033357 
L 1090.101186 598.931914 
L 1092.59002 598.931914 
L 1093.419631 602.033357 
L 1094.249243 602.033357 
L 1095.078854 598.931914 
L 1095.908465 602.033357 
L 1096.738077 602.033357 
L 1097.567688 595.830471 
L 1099.22691 602.033357 
L 1100.056522 602.033357 
L 1100.886133 598.931914 
L 1101.715744 602.033357 
L 1102.545355 598.931914 
L 1104.204578 598.931914 
L 1105.034189 602.033357 
L 1106.693412 602.033357 
L 1107.523023 598.931914 
L 1109.182246 598.931914 
L 1110.011857 602.033357 
L 1110.841468 602.033357 
L 1111.671079 598.931914 
L 1119.967192 598.931914 
L 1120.796803 605.1348 
L 1121.626415 602.033357 
L 1122.456026 602.033357 
L 1123.285637 598.931914 
L 1124.115249 602.033357 
L 1126.604082 602.033357 
L 1127.433694 598.931914 
L 1128.263305 602.033357 
L 1129.092916 602.033357 
L 1129.922527 598.931914 
L 1130.752139 602.033357 
L 1131.58175 598.931914 
L 1132.411361 598.931914 
L 1133.240973 589.627586 
L 1134.070584 549.308829 
L 1134.900195 499.685743 
L 1135.729806 471.772757 
L 1136.559418 466.368728 
L 1138.21864 466.368728 
L 1139.048252 469.070743 
L 1139.877863 469.070743 
L 1140.707474 458.262684 
L 1141.537085 455.56067 
L 1142.366697 493.482857 
L 1143.196308 502.787186 
L 1144.025919 436.646567 
L 1144.85553 423.136494 
L 1145.685142 502.787186 
L 1146.514753 524.497286 
L 1147.344364 442.050597 
L 1148.173976 409.626421 
L 1149.003587 484.178529 
L 1149.833198 536.903057 
L 1150.662809 455.56067 
L 1151.492421 401.520378 
L 1153.151643 536.903057 
L 1153.981254 477.975643 
L 1154.810866 404.222392 
L 1155.640477 447.454626 
L 1156.470088 530.700172 
L 1157.2997 499.685743 
L 1158.129311 412.328436 
L 1158.958922 428.540524 
L 1159.788533 524.497286 
L 1160.618145 512.091514 
L 1161.447756 423.136494 
L 1162.277367 417.732465 
L 1163.106978 508.990072 
L 1163.93659 530.700172 
L 1164.766201 436.646567 
L 1165.595812 401.520378 
L 1166.425424 490.381414 
L 1167.255035 533.801614 
L 1168.084646 452.858655 
L 1168.914257 404.222392 
L 1170.57348 530.700172 
L 1172.232702 420.43448 
L 1173.891925 496.5843 
L 1175.551148 458.262684 
L 1176.380759 460.964699 
L 1177.21037 471.772757 
L 1178.039981 469.070743 
L 1181.358427 469.070743 
L 1182.188038 466.368728 
L 1183.017649 466.368728 
L 1183.84726 469.070743 
L 1184.676872 469.070743 
L 1185.506483 466.368728 
L 1186.336094 469.070743 
L 1188.824928 469.070743 
L 1189.654539 466.368728 
L 1190.484151 469.070743 
L 1191.313762 466.368728 
L 1192.143373 469.070743 
L 1192.972984 466.368728 
L 1193.802596 466.368728 
L 1194.632207 469.070743 
L 1195.461818 469.070743 
L 1195.461818 469.070743 
" style="fill:none;stroke:#ff0000;stroke-linecap:square;stroke-width:1.5;"/>
   </g>
   <g id="patch_3">
    <path d="M 172.8 629.9064 
L 172.8 84.9312 
" style="fill:none;stroke:#000000;stroke-linecap:square;stroke-linejoin:miter;stroke-width:0.8;"/>
   </g>
   <g id="patch_4">
    <path d="M 1244.16 629.9064 
L 1244.16 84.9312 
" style="fill:none;stroke:#000000;stroke-linecap:square;stroke-linejoin:miter;stroke-width:0.8;"/>
   </g>
   <g id="patch_5">
    <path d="M 172.8 629.9064 
L 1244.16 629.9064 
" style="fill:none;stroke:#000000;stroke-linecap:square;stroke-linejoin:miter;stroke-width:0.8;"/>
   </g>
   <g id="patch_6">
    <path d="M 172.8 84.9312 
L 1244.16 84.9312 
" style="fill:none;stroke:#000000;stroke-linecap:square;stroke-linejoin:miter;stroke-width:0.8;"/>
   </g>
  </g>
 </g>
 <defs>
  <clipPath id="p1ca7575ed9">
   <rect height="544.9752" width="1071.36" x="172.8" y="84.9312"/>
  </clipPath>
 </defs>
</svg>
